<svg width="160" height="160" viewBox="0 0 160 160" fill="none" xmlns="http://www.w3.org/2000/svg">
<path d="M160 80C160 124.183 124.183 160 80 160C35.8172 160 0 124.183 0 80C0 35.8172 35.8172 0 80 0C124.183 0 160 35.8172 160 80Z" fill="#E2F6EB"/>
<mask id="mask0" mask-type="alpha" maskUnits="userSpaceOnUse" x="0" y="0" width="160" height="160">
<path d="M160 80C160 124.183 124.183 160 80 160C35.8172 160 0 124.183 0 80C0 35.8172 35.8172 0 80 0C124.183 0 160 35.8172 160 80Z" fill="#ECF4FF"/>
</mask>
<g mask="url(#mask0)">
<path d="M163 110.5C163 119.06 127.84 174.5 82 174.5C36.1604 174.5 -3 119.06 -3 110.5C-3 101.94 34.1604 95 80 95C125.84 95 163 101.94 163 110.5Z" fill="url(#paint0_linear)"/>
<circle cx="81" cy="115" r="63" fill="url(#paint1_linear)"/>
<mask id="mask1" mask-type="alpha" maskUnits="userSpaceOnUse" x="18" y="52" width="126" height="126">
<circle cx="81" cy="115" r="63" fill="url(#paint2_linear)"/>
</mask>
<g mask="url(#mask1)">
<path d="M76 72.4996C98.8 64.0996 121.5 72.9996 130 78.4996C153.6 80.8993 148.5 109.5 143 123.5C133.4 107.1 114.333 110.333 106 114C101.5 118.167 94.1 128.5 100.5 136.5C108.5 146.5 100 151 89 158.5C80.2 164.5 63.3333 164.667 56 164C57.6667 161.333 63.1 155 71.5 151C82 146 90.5 136 89 130C87.5 124 84.5 126.5 71.5 123.5C58.5 120.5 45 112 51.5 101.5C58 91 41 95 29.5 95C20.3 95 18 90.3333 18 88L23.5 75.5C35 84 47.5 82.9996 76 72.4996Z" fill="#8ED8B3"/>
</g>
<circle cx="90" cy="91" r="32" fill="#00A14B"/>
<ellipse cx="92" cy="90.5" rx="31" ry="30.5" fill="url(#paint3_linear)"/>
<ellipse cx="92" cy="90.5" rx="25" ry="24.5" fill="url(#paint4_linear)"/>
<path d="M80.2074 74.7352C80.0876 74.3615 80.1875 73.9522 80.4659 73.6757C83.4332 70.7288 87.633 69.3825 91.7605 70.0549C92.1478 70.118 92.4671 70.393 92.5869 70.7667L93.0623 72.2496C93.27 72.8976 92.7198 73.5363 92.0482 73.4269C88.4465 72.8402 84.7817 74.015 82.1924 76.5864C81.7095 77.0659 80.8905 76.8661 80.6828 76.2181L80.2074 74.7352Z" fill="#E2F6EB"/>
</g>
<defs>
<linearGradient id="paint0_linear" x1="80" y1="95" x2="80" y2="174.5" gradientUnits="userSpaceOnUse">
<stop stop-color="#8ED8B3"/>
<stop offset="1" stop-color="#E2F6EB"/>
</linearGradient>
<linearGradient id="paint1_linear" x1="81" y1="52" x2="81" y2="178" gradientUnits="userSpaceOnUse">
<stop stop-color="#8ED8B3"/>
<stop offset="1" stop-color="#2DB46C"/>
</linearGradient>
<linearGradient id="paint2_linear" x1="81" y1="52" x2="81" y2="178" gradientUnits="userSpaceOnUse">
<stop stop-color="#97BEFF"/>
<stop offset="1" stop-color="#6899FF"/>
</linearGradient>
<linearGradient id="paint3_linear" x1="74.5" y1="65.5" x2="96.5" y2="157" gradientUnits="userSpaceOnUse">
<stop stop-color="#8ED8B3"/>
<stop offset="1" stop-color="#5BC68E"/>
</linearGradient>
<linearGradient id="paint4_linear" x1="92" y1="66" x2="92" y2="115" gradientUnits="userSpaceOnUse">
<stop stop-color="#00A14B"/>
<stop offset="1" stop-color="#5BC68E"/>
</linearGradient>
</defs>
</svg>
